<svg width="22" height="25" viewBox="0 0 22 25" fill="none" xmlns="http://www.w3.org/2000/svg">
<path d="M5.36712 15.2287C4.59034 16.014 4.52052 17.3494 5.21119 18.2114C5.90185 19.0735 7.09145 19.1356 7.86823 18.3504L5.36712 15.2287ZM21.3885 3.85454C21.4494 2.68972 20.6576 1.70148 19.62 1.64723L2.71064 0.763215C1.673 0.708967 0.782455 1.60926 0.721559 2.77408C0.660663 3.93889 1.45247 4.92714 2.49011 4.98139L17.5206 5.76718L16.6385 22.6399C16.5776 23.8047 17.3694 24.7929 18.4071 24.8472C19.4447 24.9014 20.3353 24.0011 20.3962 22.8363L21.3885 3.85454ZM7.86823 18.3504L20.7603 5.31712L18.2592 2.19551L5.36712 15.2287L7.86823 18.3504Z" fill="white"/>
</svg>
