<svg width="22" height="24" viewBox="0 0 22 24" fill="none" xmlns="http://www.w3.org/2000/svg">
<path fill-rule="evenodd" clip-rule="evenodd" d="M0 4.13857V0H2.77136V4.13857H4.21247V0H5.57968V4.13857H6.98383V0H9.75519V4.13857H8.35076V6.94688H1.44111V4.13857H0ZM1.44111 8.38799H8.35076V15.261H1.44111V13.8938H4.21247V12.5266H1.44111V11.1594H5.57968V9.71824H1.44111V8.38799ZM1.55168 16.739H8.35076V20.8037C8.03051 21.826 6.94688 23.5751 5.13598 23.5751C2.86264 23.5751 1.71146 21.358 1.62587 20.8037C1.54827 20.3012 1.55046 18.0676 1.55149 17.0214L1.55168 16.739ZM16.5173 2.95612L19.6582 7.98152C20.3972 9.05312 21.8975 11.5436 21.9861 12.933C22.097 14.6697 21.6536 19.4734 16.5173 19.4734C11.8245 19.4734 10.7529 15.0023 11.0115 12.933C11.2185 11.2776 12.5512 8.94226 13.1917 7.98152L16.5173 2.95612ZM15.6306 12.97V11.6028H17.0717V12.97H18.4389V14.4111H17.0717V15.8152H15.6306V14.4111H14.3004V12.97H15.6306Z" fill="#86040E"/>
</svg>
