<svg width="28" height="27" viewBox="0 0 28 27" fill="none" xmlns="http://www.w3.org/2000/svg">
<path d="M5.72384 1.36208C5.72384 2.50001 5.51694 2.65519 3.75832 2.65519C1.01694 2.65519 0.0341797 3.84484 0.0341797 7.20691C0.0341797 9.27588 0.241076 9.89657 0.810042 9.89657C1.22383 9.89657 1.5859 9.5345 1.5859 9.1207C1.5859 8.44829 3.2928 8.34484 13.6894 8.34484H25.8445L25.9997 9.48277C26.1031 10.1552 26.5687 10.7242 27.0859 10.8276C27.8618 10.9828 27.9652 10.569 27.9652 7.67243C27.9652 3.79312 27.1376 2.65519 24.1894 2.65519C22.4825 2.65519 22.2756 2.50001 22.2756 1.36208C22.2756 0.534497 21.9652 0.0689794 21.4997 0.0689794C21.0342 0.0689794 20.7238 0.534497 20.7238 1.36208C20.7238 2.60346 20.5687 2.65519 17.9307 2.65519C15.3962 2.65519 15.0859 2.55174 14.9307 1.51726C14.6721 -0.241365 12.9652 -0.396538 12.9652 1.31036C12.9652 2.60346 12.81 2.65519 10.1204 2.65519C7.43073 2.65519 7.27556 2.60346 7.27556 1.36208C7.27556 0.534497 6.96521 0.0689794 6.4997 0.0689794C6.03418 0.0689794 5.72384 0.534497 5.72384 1.36208Z" fill="#86040E"/>
<path d="M15.1893 11.3966C12.0859 13.3621 10.7411 16.7242 11.5169 20.6035C12.0859 23.2414 15.1376 26.2414 17.879 26.7587C22.0169 27.5345 26.2583 24.8966 27.448 20.9138C28.379 17.8621 27.7583 15.3276 25.4307 12.8449C23.5686 10.8793 23.2583 10.7242 20.1548 10.569C17.5169 10.4138 16.5342 10.569 15.1893 11.3966ZM20.6204 16.2586C20.7755 17.7586 21.0859 18.3793 22.0686 18.7931C23.4652 19.4138 23.7755 20.7586 22.5342 20.7586C22.0686 20.7586 21.0342 20.3966 20.2066 19.9828C18.81 19.2586 18.6548 18.9483 18.6548 16.569C18.6548 14.3449 18.81 13.9828 19.5859 14.138C20.2066 14.2414 20.5169 14.8621 20.6204 16.2586Z" fill="#86040E"/>
<path d="M0.396249 12.3276C0.189352 12.4828 0.0341797 15.1724 0.0341797 18.2242C0.0341797 25.3621 0.0859038 25.4138 6.2928 25.4138C10.4825 25.4138 10.948 25.3104 10.7928 24.5345C10.6376 23.7586 9.86176 23.5517 6.24108 23.3449L1.84452 23.0862L1.68935 17.5C1.5859 12.3793 1.32728 11.3966 0.396249 12.3276Z" fill="#86040E"/>
<path d="M4.43025 12.4828C3.80956 13.4656 4.94749 14.138 6.80956 13.9311C9.29232 13.7242 9.18887 12.2759 6.65438 12.069C5.6199 11.9656 4.63714 12.1725 4.43025 12.4828Z" fill="#86040E"/>
<path d="M4.53428 14.9138C3.55152 15.8449 4.27566 16.6207 6.18945 16.6207C8.36187 16.6207 9.44807 15.7931 8.25842 15.0173C7.37911 14.5 4.9998 14.3966 4.53428 14.9138Z" fill="#86040E"/>
<path d="M4.17188 18.3793C4.17188 19.3621 6.24084 19.9828 7.79256 19.4655C9.55119 18.8966 8.67188 17.9138 6.34429 17.7586C4.68912 17.6552 4.17188 17.7586 4.17188 18.3793Z" fill="#86040E"/>
</svg>
