<svg width="25" height="24" viewBox="0 0 25 24" fill="none" xmlns="http://www.w3.org/2000/svg">
<path d="M6.43431 2.59181C4.09824 5.7538 2.57672 8.47 2.17713 10.2117C2.07467 10.673 2.0798 11.435 2.19763 12C2.59209 13.9335 3.95992 15.4627 5.76832 15.9914C6.0091 16.064 6.21402 16.121 6.22426 16.121C6.22939 16.121 6.24988 15.7633 6.26525 15.3279C6.29599 14.4674 6.40869 13.892 6.72631 12.902C7.26935 11.2432 8.49885 8.88469 10.0562 6.53652L10.4097 5.99743L10.3226 5.83674C9.79496 4.90369 7.40767 1.50326 7.28472 1.50326C7.2591 1.50326 6.87488 1.99052 6.43431 2.59181Z" fill="#86040E"/>
<path d="M15.0053 3.30195C11.7113 7.55249 9.42643 11.295 8.65287 13.7106C8.3916 14.5348 8.33524 14.9235 8.36598 15.7063C8.39672 16.4527 8.47356 16.8778 8.68873 17.5464C9.11393 18.8683 9.98483 20.102 11.0914 20.9624C11.6344 21.3875 11.824 21.5067 12.3977 21.7866C13.909 22.5279 15.702 22.73 17.3465 22.3413C19.0371 21.9421 20.5074 20.978 21.5166 19.6043C22.0238 18.9149 22.2902 18.3966 22.5361 17.6397C22.8229 16.7534 22.8742 16.4164 22.8742 15.473C22.8742 14.7318 22.8588 14.5918 22.7359 14.1408C22.1928 12.1711 20.6918 9.4134 18.4377 6.23586C17.449 4.85184 15.6969 2.53996 15.6303 2.53996C15.615 2.53996 15.3332 2.88208 15.0053 3.30195ZM19.7697 13.0834C20.3639 13.3996 21.0607 14.9754 20.907 15.6648C20.8762 15.7892 20.8148 16.095 20.7686 16.3542C20.6662 16.914 20.5176 17.2924 20.2154 17.7642C19.6109 18.7024 18.5863 19.2985 17.5668 19.2933C17.0904 19.2933 16.7881 19.2467 16.8137 19.1741C16.824 19.1534 17.1672 18.7853 17.577 18.3654C18.0176 17.9145 18.4275 17.4428 18.5709 17.2199C19.2215 16.1935 19.5699 14.9754 19.5852 13.6484C19.5904 13.2959 19.6006 13.0108 19.6109 13.0108C19.6211 13.0108 19.6877 13.0419 19.7697 13.0834Z" fill="#86040E"/>
</svg>
