<svg width="34" height="28" viewBox="0 0 34 28" fill="none" xmlns="http://www.w3.org/2000/svg">
<path d="M16.6563 0.0516778C16.5235 0.104803 16.331 0.204412 16.2247 0.2841C16.1185 0.357147 12.4728 3.98957 8.1165 8.34582C2.51846 13.9439 0.167676 16.3411 0.0946289 16.5138C-0.031543 16.8259 -0.031543 17.1048 0.0946289 17.4103C0.234082 17.7423 0.373535 17.8884 0.692285 18.0345C1.01768 18.1872 1.3165 18.1939 1.64189 18.0611C1.81455 17.988 4.11221 15.7302 9.44463 10.4044L16.995 2.85402L24.5521 10.4044C29.8778 15.7302 32.1755 17.988 32.3481 18.0611C32.6735 18.1939 32.9724 18.1872 33.2978 18.0345C33.6165 17.8884 33.756 17.7423 33.8954 17.4103C34.0216 17.1048 34.0216 16.8259 33.8954 16.5138C33.8224 16.3411 32.554 15.0263 29.7782 12.2505L25.7606 8.23293V5.54347C25.7606 2.55519 25.754 2.51535 25.3024 2.13683C24.7712 1.69191 23.8614 1.87785 23.5228 2.50871C23.4231 2.68801 23.4032 2.96027 23.3833 4.27512L23.3567 5.82902L20.561 3.03332C19.0204 1.49933 17.6657 0.197772 17.5595 0.144647C17.2474 -0.00808782 16.922 -0.0412909 16.6563 0.0516778Z" fill="#86040E"/>
<path d="M16.5963 4.75325C16.2709 4.84622 3.72011 17.3837 3.49433 17.8286C3.34824 18.1208 3.34824 18.174 3.32832 21.4079C3.31504 23.3736 3.33496 24.8611 3.3748 25.12C3.57402 26.395 4.55019 27.3579 5.83847 27.5306C6.11738 27.5704 7.65136 27.5904 9.54394 27.5771C12.6385 27.5505 12.7912 27.5439 13.1498 27.4111C13.9334 27.1189 14.4713 26.6208 14.8232 25.8771L15.0357 25.4322L15.0756 22.6431C15.0955 20.9697 15.142 19.7743 15.1818 19.6482C15.4607 18.8447 16.2643 18.2072 16.9947 18.2005C17.5592 18.2005 18.3561 18.7118 18.635 19.2497C18.8607 19.688 18.8807 19.8939 18.9139 22.6431L18.9537 25.4322L19.1662 25.8771C19.5182 26.6275 20.0627 27.1189 20.8861 27.431C21.185 27.5439 21.5037 27.5505 24.4455 27.5771C26.3447 27.5904 27.8721 27.5704 28.151 27.5306C29.4193 27.3579 30.3756 26.4415 30.608 25.1865C30.6545 24.9408 30.6744 23.5993 30.6611 21.4677C30.6412 18.4263 30.6279 18.1009 30.5217 17.8618C30.4353 17.6759 28.5893 15.7833 24.1467 11.3341C20.7068 7.89427 17.785 4.99896 17.6588 4.91263C17.3865 4.72005 16.9283 4.65364 16.5963 4.75325Z" fill="#86040E"/>
</svg>
