<svg width="180" height="31" viewBox="0 0 180 31" fill="none" xmlns="http://www.w3.org/2000/svg">
<g clip-path="url(#clip0_43_256)">
<g filter="url(#filter0_i_43_256)">
<path d="M9.17987 0.456156C2.92875 1.83468 -0.300015 8.13437 2.11787 14.1673C3.37104 17.2949 5.99534 20.4818 10.3593 24.1727C13.3227 26.6777 17.5245 29.6571 18.3207 29.8053C18.8956 29.9239 19.5886 29.5533 21.8738 27.9228C25.1615 25.5512 29.2306 22.1716 30.4838 20.7338C34.5972 16.0498 35.9978 13.0555 35.7471 9.5129C35.4228 5.14017 32.7248 1.80503 28.5672 0.604385C26.0609 -0.121933 22.0212 0.604383 20.8565 2.01255C20.37 2.59064 20.1193 3.50965 20.2373 4.22115C20.2963 4.54725 21.3578 6.56316 22.7584 8.9941C25.5891 13.9004 25.8729 14.5564 25.7844 16.6316C25.7402 17.8767 25.6186 18.1101 25.1025 19.1477C24.4244 20.5559 23.3628 21.6676 22.1244 22.2902C18.2322 24.2764 13.8608 23.1351 12.0179 19.3552C11.5314 18.3769 11.3582 18.0916 11.2992 16.9651C11.1813 14.6231 11.1112 14.6416 16.1239 5.88131C16.8463 4.62137 17.0085 3.92469 16.7726 3.03533C16.4188 1.76056 15.2098 0.974955 12.7477 0.470978C11.4208 0.189344 10.3888 0.189346 9.17987 0.456156Z" fill="white"/>
</g>
<path d="M13.9421 13.6335C13.3671 14.1967 12.9985 16.1089 13.2344 17.1613C13.7504 19.4144 15.5196 20.9856 17.7901 21.2227C18.542 21.3117 18.7042 21.282 18.7779 21.0745C18.9106 20.7188 18.8074 20.6595 17.8048 20.5113C16.1978 20.3037 14.9889 19.444 14.3107 18.0507C13.7947 16.9834 13.7504 15.6494 14.2222 14.5821C14.4729 14.0189 14.5024 13.841 14.3549 13.6483C14.1927 13.4111 14.1485 13.4111 13.9421 13.6335Z" fill="white"/>
</g>
<path d="M45.3427 28.4048V11.6048H52.6387C53.7587 11.6048 54.7027 11.7728 55.4707 12.1088C56.2547 12.4288 56.8467 12.9008 57.2467 13.5248C57.6467 14.1488 57.8467 14.8928 57.8467 15.7568C57.8467 16.7168 57.6067 17.5168 57.1267 18.1568C56.6467 18.7968 55.9587 19.2368 55.0627 19.4768L55.0387 18.9968C55.7747 19.1728 56.4227 19.4608 56.9827 19.8608C57.5427 20.2608 57.9747 20.7568 58.2787 21.3488C58.5827 21.9408 58.7347 22.6128 58.7347 23.3648C58.7347 24.1968 58.5987 24.9328 58.3267 25.5728C58.0547 26.1968 57.6547 26.7168 57.1267 27.1328C56.5987 27.5488 55.9747 27.8688 55.2547 28.0928C54.5507 28.3008 53.7587 28.4048 52.8787 28.4048H45.3427ZM48.7987 25.2848H52.7347C53.2467 25.2848 53.6787 25.2128 54.0307 25.0688C54.3987 24.9088 54.6787 24.6688 54.8707 24.3488C55.0627 24.0288 55.1587 23.6528 55.1587 23.2208C55.1587 22.8048 55.0547 22.4528 54.8467 22.1648C54.6387 21.8768 54.3427 21.6608 53.9587 21.5168C53.5907 21.3568 53.1427 21.2768 52.6147 21.2768H48.7987V25.2848ZM48.7987 18.4208H52.2067C52.6387 18.4208 53.0147 18.3408 53.3347 18.1808C53.6547 18.0208 53.8947 17.8048 54.0547 17.5328C54.2307 17.2608 54.3187 16.9408 54.3187 16.5728C54.3187 15.9808 54.1267 15.5248 53.7427 15.2048C53.3587 14.8848 52.7827 14.7248 52.0147 14.7248H48.7987V18.4208ZM61.4804 28.4048V10.6448H64.8884V28.4048H61.4804ZM74.0167 28.6448C72.7207 28.6448 71.5607 28.3648 70.5367 27.8048C69.5287 27.2288 68.7287 26.4448 68.1367 25.4528C67.5607 24.4608 67.2727 23.3248 67.2727 22.0448C67.2727 20.7648 67.5607 19.6368 68.1367 18.6608C68.7287 17.6688 69.5287 16.8848 70.5367 16.3088C71.5607 15.7328 72.7207 15.4448 74.0167 15.4448C75.2967 15.4448 76.4407 15.7328 77.4487 16.3088C78.4727 16.8848 79.2727 17.6688 79.8487 18.6608C80.4247 19.6368 80.7127 20.7648 80.7127 22.0448C80.7127 23.3248 80.4247 24.4608 79.8487 25.4528C79.2727 26.4448 78.4727 27.2288 77.4487 27.8048C76.4407 28.3648 75.2967 28.6448 74.0167 28.6448ZM74.0167 25.6688C74.6407 25.6688 75.2007 25.5168 75.6967 25.2128C76.1927 24.8928 76.5767 24.4608 76.8487 23.9168C77.1367 23.3568 77.2807 22.7328 77.2807 22.0448C77.2807 21.3408 77.1367 20.7168 76.8487 20.1728C76.5767 19.6128 76.1927 19.1808 75.6967 18.8768C75.2007 18.5568 74.6407 18.3968 74.0167 18.3968C73.3767 18.3968 72.8087 18.5568 72.3127 18.8768C71.8167 19.1968 71.4247 19.6288 71.1367 20.1728C70.8487 20.7168 70.7127 21.3408 70.7287 22.0448C70.7127 22.7328 70.8487 23.3568 71.1367 23.9168C71.4247 24.4608 71.8167 24.8928 72.3127 25.2128C72.8087 25.5168 73.3767 25.6688 74.0167 25.6688ZM89.1808 28.6448C87.8848 28.6448 86.7248 28.3648 85.7008 27.8048C84.6928 27.2288 83.8928 26.4448 83.3008 25.4528C82.7248 24.4608 82.4368 23.3248 82.4368 22.0448C82.4368 20.7648 82.7248 19.6368 83.3008 18.6608C83.8928 17.6688 84.6928 16.8848 85.7008 16.3088C86.7248 15.7328 87.8848 15.4448 89.1808 15.4448C90.4608 15.4448 91.6048 15.7328 92.6128 16.3088C93.6368 16.8848 94.4368 17.6688 95.0128 18.6608C95.5888 19.6368 95.8768 20.7648 95.8768 22.0448C95.8768 23.3248 95.5888 24.4608 95.0128 25.4528C94.4368 26.4448 93.6368 27.2288 92.6128 27.8048C91.6048 28.3648 90.4608 28.6448 89.1808 28.6448ZM89.1808 25.6688C89.8048 25.6688 90.3648 25.5168 90.8608 25.2128C91.3568 24.8928 91.7408 24.4608 92.0128 23.9168C92.3008 23.3568 92.4448 22.7328 92.4448 22.0448C92.4448 21.3408 92.3008 20.7168 92.0128 20.1728C91.7408 19.6128 91.3568 19.1808 90.8608 18.8768C90.3648 18.5568 89.8048 18.3968 89.1808 18.3968C88.5408 18.3968 87.9728 18.5568 87.4768 18.8768C86.9808 19.1968 86.5888 19.6288 86.3008 20.1728C86.0128 20.7168 85.8768 21.3408 85.8928 22.0448C85.8768 22.7328 86.0128 23.3568 86.3008 23.9168C86.5888 24.4608 86.9808 24.8928 87.4768 25.2128C87.9728 25.5168 88.5408 25.6688 89.1808 25.6688ZM103.409 28.6448C102.305 28.6448 101.313 28.3648 100.433 27.8048C99.5528 27.2288 98.8568 26.4528 98.3448 25.4768C97.8488 24.4848 97.6008 23.3408 97.6008 22.0448C97.6008 20.7808 97.8488 19.6528 98.3448 18.6608C98.8568 17.6688 99.5448 16.8848 100.409 16.3088C101.289 15.7328 102.289 15.4448 103.409 15.4448C104.001 15.4448 104.569 15.5408 105.113 15.7328C105.673 15.9088 106.169 16.1568 106.601 16.4768C107.049 16.7968 107.409 17.1568 107.681 17.5568C107.953 17.9408 108.105 18.3488 108.137 18.7808L107.273 18.9248V10.6448H110.681V28.4048H107.465L107.321 25.4768L107.993 25.5488C107.961 25.9488 107.817 26.3328 107.561 26.7008C107.305 27.0688 106.961 27.4048 106.529 27.7088C106.113 27.9968 105.633 28.2288 105.089 28.4048C104.561 28.5648 104.001 28.6448 103.409 28.6448ZM104.177 25.8128C104.817 25.8128 105.377 25.6528 105.857 25.3328C106.337 25.0128 106.713 24.5728 106.985 24.0128C107.257 23.4528 107.393 22.7968 107.393 22.0448C107.393 21.3088 107.257 20.6608 106.985 20.1008C106.713 19.5248 106.337 19.0848 105.857 18.7808C105.377 18.4608 104.817 18.3008 104.177 18.3008C103.537 18.3008 102.977 18.4608 102.497 18.7808C102.033 19.0848 101.665 19.5248 101.393 20.1008C101.137 20.6608 101.009 21.3088 101.009 22.0448C101.009 22.7968 101.137 23.4528 101.393 24.0128C101.665 24.5728 102.033 25.0128 102.497 25.3328C102.977 25.6528 103.537 25.8128 104.177 25.8128ZM125.067 28.4048V11.6048H128.667V28.4048H125.067ZM114.483 28.4048V11.6048H118.083V28.4048H114.483ZM115.923 21.6608L115.947 18.3968H126.915V21.6608H115.923ZM138.59 28.6448C137.214 28.6448 136.014 28.3648 134.99 27.8048C133.966 27.2448 133.166 26.4768 132.59 25.5008C132.014 24.5248 131.726 23.4048 131.726 22.1408C131.726 21.1648 131.886 20.2688 132.206 19.4528C132.526 18.6368 132.974 17.9328 133.55 17.3408C134.126 16.7328 134.806 16.2688 135.59 15.9488C136.39 15.6128 137.254 15.4448 138.182 15.4448C139.046 15.4448 139.846 15.6048 140.582 15.9248C141.318 16.2288 141.95 16.6688 142.478 17.2448C143.022 17.8048 143.438 18.4688 143.726 19.2368C144.014 20.0048 144.142 20.8448 144.11 21.7568L144.086 22.8128H133.886L133.334 20.7248H141.278L140.894 21.1568V20.6288C140.862 20.1968 140.718 19.8048 140.462 19.4528C140.222 19.1008 139.91 18.8288 139.526 18.6368C139.142 18.4448 138.71 18.3488 138.23 18.3488C137.526 18.3488 136.926 18.4848 136.43 18.7568C135.95 19.0288 135.582 19.4288 135.326 19.9568C135.07 20.4848 134.942 21.1248 134.942 21.8768C134.942 22.6448 135.102 23.3088 135.422 23.8688C135.758 24.4288 136.222 24.8688 136.814 25.1888C137.422 25.4928 138.134 25.6448 138.95 25.6448C139.51 25.6448 140.022 25.5568 140.486 25.3808C140.95 25.2048 141.446 24.9008 141.974 24.4688L143.606 26.7488C143.142 27.1648 142.63 27.5168 142.07 27.8048C141.51 28.0768 140.934 28.2848 140.342 28.4288C139.75 28.5728 139.166 28.6448 138.59 28.6448ZM146.628 28.4048V15.7088H149.916L150.036 19.7888L149.46 18.9488C149.652 18.2928 149.964 17.7008 150.396 17.1728C150.828 16.6288 151.332 16.2048 151.908 15.9008C152.5 15.5968 153.116 15.4448 153.756 15.4448C154.028 15.4448 154.292 15.4688 154.548 15.5168C154.804 15.5648 155.02 15.6208 155.196 15.6848L154.284 19.4288C154.092 19.3328 153.86 19.2528 153.588 19.1888C153.316 19.1088 153.036 19.0688 152.748 19.0688C152.364 19.0688 152.004 19.1408 151.668 19.2848C151.348 19.4128 151.068 19.6048 150.828 19.8608C150.588 20.1008 150.396 20.3888 150.252 20.7248C150.124 21.0608 150.06 21.4288 150.06 21.8288V28.4048H146.628ZM162.517 28.6448C161.221 28.6448 160.061 28.3648 159.037 27.8048C158.029 27.2288 157.229 26.4448 156.637 25.4528C156.061 24.4608 155.773 23.3248 155.773 22.0448C155.773 20.7648 156.061 19.6368 156.637 18.6608C157.229 17.6688 158.029 16.8848 159.037 16.3088C160.061 15.7328 161.221 15.4448 162.517 15.4448C163.797 15.4448 164.941 15.7328 165.949 16.3088C166.973 16.8848 167.773 17.6688 168.349 18.6608C168.925 19.6368 169.213 20.7648 169.213 22.0448C169.213 23.3248 168.925 24.4608 168.349 25.4528C167.773 26.4448 166.973 27.2288 165.949 27.8048C164.941 28.3648 163.797 28.6448 162.517 28.6448ZM162.517 25.6688C163.141 25.6688 163.701 25.5168 164.197 25.2128C164.693 24.8928 165.077 24.4608 165.349 23.9168C165.637 23.3568 165.781 22.7328 165.781 22.0448C165.781 21.3408 165.637 20.7168 165.349 20.1728C165.077 19.6128 164.693 19.1808 164.197 18.8768C163.701 18.5568 163.141 18.3968 162.517 18.3968C161.877 18.3968 161.309 18.5568 160.813 18.8768C160.317 19.1968 159.925 19.6288 159.637 20.1728C159.349 20.7168 159.213 21.3408 159.229 22.0448C159.213 22.7328 159.349 23.3568 159.637 23.9168C159.925 24.4608 160.317 24.8928 160.813 25.2128C161.309 25.5168 161.877 25.6688 162.517 25.6688Z" fill="#F6F6F6"/>
<defs>
<filter id="filter0_i_43_256" x="1.31348" y="0.257812" width="34.4619" height="33.5679" filterUnits="userSpaceOnUse" color-interpolation-filters="sRGB">
<feFlood flood-opacity="0" result="BackgroundImageFix"/>
<feBlend mode="normal" in="SourceGraphic" in2="BackgroundImageFix" result="shape"/>
<feColorMatrix in="SourceAlpha" type="matrix" values="0 0 0 0 0 0 0 0 0 0 0 0 0 0 0 0 0 0 127 0" result="hardAlpha"/>
<feOffset dy="5"/>
<feGaussianBlur stdDeviation="2"/>
<feComposite in2="hardAlpha" operator="arithmetic" k2="-1" k3="1"/>
<feColorMatrix type="matrix" values="0 0 0 0 0.266667 0 0 0 0 0.00784314 0 0 0 0 0.0156863 0 0 0 0.5 0"/>
<feBlend mode="normal" in2="shape" result="effect1_innerShadow_43_256"/>
</filter>
<clipPath id="clip0_43_256">
<rect width="35.9734" height="30.2385" fill="white" transform="translate(0.407715 0.233887)"/>
</clipPath>
</defs>
</svg>
