<svg width="36" height="29" viewBox="0 0 36 29" fill="none" xmlns="http://www.w3.org/2000/svg">
<g filter="url(#filter0_i_124_70)">
<path d="M8.06411 0.190687C1.65587 1.51624 -1.65405 7.57386 0.824613 13.3749C2.10928 16.3823 4.79953 19.4468 9.27321 22.9958C12.3111 25.4046 16.6185 28.2695 17.4346 28.4121C18.0241 28.5261 18.7344 28.1698 21.0771 26.6019C24.4474 24.3214 28.6188 21.0717 29.9035 19.6891C34.1202 15.1851 35.556 12.3059 35.2991 8.89941C34.9666 4.69471 32.2008 1.48773 27.9387 0.333221C25.3694 -0.365187 21.2282 0.33322 20.0342 1.68728C19.5355 2.24315 19.2785 3.12685 19.3994 3.81101C19.4599 4.12458 20.5481 6.06301 21.9839 8.40054C24.8857 13.1184 25.1767 13.7491 25.086 15.7445C25.0407 16.9418 24.916 17.1663 24.387 18.164C23.6917 19.5181 22.6036 20.587 21.334 21.1857C17.344 23.0956 12.8627 21.9981 10.9735 18.3635C10.4748 17.4228 10.2972 17.1485 10.2367 16.0652C10.1158 13.8132 10.044 13.831 15.1827 5.40737C15.9233 4.19584 16.0895 3.52594 15.8477 2.67075C15.485 1.44497 14.2456 0.68955 11.7216 0.20494C10.3614 -0.0658709 9.30344 -0.0658707 8.06411 0.190687Z" fill="#C51A2D"/>
</g>
<path d="M12.9461 12.8619C12.3567 13.4035 11.9788 15.2421 12.2206 16.2541C12.7496 18.4206 14.5633 19.9314 16.8908 20.1595C17.6616 20.245 17.8278 20.2165 17.9034 20.017C18.0394 19.6749 17.9336 19.6179 16.9059 19.4753C15.2585 19.2758 14.0192 18.4491 13.3239 17.1093C12.795 16.0831 12.7496 14.8003 13.2333 13.7741C13.4902 13.2324 13.5204 13.0614 13.3693 12.8761C13.203 12.6481 13.1577 12.6481 12.9461 12.8619Z" fill="#86040E"/>
<defs>
<filter id="filter0_i_124_70" x="0" y="0" width="35.3281" height="32.4316" filterUnits="userSpaceOnUse" color-interpolation-filters="sRGB">
<feFlood flood-opacity="0" result="BackgroundImageFix"/>
<feBlend mode="normal" in="SourceGraphic" in2="BackgroundImageFix" result="shape"/>
<feColorMatrix in="SourceAlpha" type="matrix" values="0 0 0 0 0 0 0 0 0 0 0 0 0 0 0 0 0 0 127 0" result="hardAlpha"/>
<feOffset dy="5"/>
<feGaussianBlur stdDeviation="2"/>
<feComposite in2="hardAlpha" operator="arithmetic" k2="-1" k3="1"/>
<feColorMatrix type="matrix" values="0 0 0 0 0.266667 0 0 0 0 0.00784314 0 0 0 0 0.0156863 0 0 0 0.5 0"/>
<feBlend mode="normal" in2="shape" result="effect1_innerShadow_124_70"/>
</filter>
</defs>
</svg>
