<svg width="343" height="58" viewBox="0 0 343 58" fill="none" xmlns="http://www.w3.org/2000/svg">
<g filter="url(#filter0_i_79_1305)">
<path d="M16.8258 0.426345C4.83565 3.07046 -1.35738 15.1538 3.28032 26.7254C5.68401 32.7244 10.7176 38.8371 19.0881 45.9165C24.7721 50.7214 32.8316 56.4362 34.3586 56.7205C35.4615 56.9479 36.7906 56.2371 41.1738 53.1097C47.4799 48.5607 55.2848 42.0783 57.6885 39.3205C65.5783 30.3362 68.2647 24.593 67.784 17.7979C67.1619 9.41066 61.9869 3.0136 54.0123 0.710661C49.2049 -0.682476 41.4566 0.710659 39.2225 3.41164C38.2893 4.52046 37.8086 6.28321 38.0348 7.64791C38.1479 8.2734 40.184 12.1401 42.8705 16.8028C48.3 26.2136 48.8444 27.4717 48.6747 31.4521C48.5899 33.8403 48.3566 34.2881 47.3668 36.2783C46.066 38.9793 44.0299 41.1116 41.6545 42.3058C34.1889 46.1156 25.8043 43.9264 22.2695 36.6764C21.3363 34.7999 21.004 34.2526 20.8909 32.0918C20.6647 27.5996 20.5303 27.6352 30.1451 10.8322C31.5307 8.41556 31.8418 7.07929 31.3893 5.3734C30.7106 2.92831 28.3918 1.42144 23.6693 0.454776C21.1242 -0.0854198 19.1447 -0.0854193 16.8258 0.426345Z" fill="#C51A2D"/>
</g>
<path d="M25.9599 25.7019C24.857 26.7822 24.15 30.4499 24.6025 32.4685C25.5922 36.7901 28.9857 39.8038 33.3406 40.2587C34.7828 40.4293 35.0939 40.3724 35.2353 39.9744C35.4898 39.292 35.2918 39.1783 33.3689 38.894C30.2865 38.496 27.9676 36.847 26.6668 34.1744C25.6771 32.1273 25.5922 29.5685 26.4971 27.5215C26.9779 26.4411 27.0344 26.0999 26.7517 25.7303C26.4406 25.2754 26.3558 25.2754 25.9599 25.7019Z" fill="#86040E"/>
<path d="M85.276 44V18.8H96.22C97.9 18.8 99.316 19.052 100.468 19.556C101.644 20.036 102.532 20.744 103.132 21.68C103.732 22.616 104.032 23.732 104.032 25.028C104.032 26.468 103.672 27.668 102.952 28.628C102.232 29.588 101.2 30.248 99.856 30.608L99.82 29.888C100.924 30.152 101.896 30.584 102.736 31.184C103.576 31.784 104.224 32.528 104.68 33.416C105.136 34.304 105.364 35.312 105.364 36.44C105.364 37.688 105.16 38.792 104.752 39.752C104.344 40.688 103.744 41.468 102.952 42.092C102.16 42.716 101.224 43.196 100.144 43.532C99.088 43.844 97.9 44 96.58 44H85.276ZM90.46 39.32H96.364C97.132 39.32 97.78 39.212 98.308 38.996C98.86 38.756 99.28 38.396 99.568 37.916C99.856 37.436 100 36.872 100 36.224C100 35.6 99.844 35.072 99.532 34.64C99.22 34.208 98.776 33.884 98.2 33.668C97.648 33.428 96.976 33.308 96.184 33.308H90.46V39.32ZM90.46 29.024H95.572C96.22 29.024 96.784 28.904 97.264 28.664C97.744 28.424 98.104 28.1 98.344 27.692C98.608 27.284 98.74 26.804 98.74 26.252C98.74 25.364 98.452 24.68 97.876 24.2C97.3 23.72 96.436 23.48 95.284 23.48H90.46V29.024ZM109.483 44V17.36H114.595V44H109.483ZM128.287 44.36C126.343 44.36 124.603 43.94 123.067 43.1C121.555 42.236 120.355 41.06 119.467 39.572C118.603 38.084 118.171 36.38 118.171 34.46C118.171 32.54 118.603 30.848 119.467 29.384C120.355 27.896 121.555 26.72 123.067 25.856C124.603 24.992 126.343 24.56 128.287 24.56C130.207 24.56 131.923 24.992 133.435 25.856C134.971 26.72 136.171 27.896 137.035 29.384C137.899 30.848 138.331 32.54 138.331 34.46C138.331 36.38 137.899 38.084 137.035 39.572C136.171 41.06 134.971 42.236 133.435 43.1C131.923 43.94 130.207 44.36 128.287 44.36ZM128.287 39.896C129.223 39.896 130.063 39.668 130.807 39.212C131.551 38.732 132.127 38.084 132.535 37.268C132.967 36.428 133.183 35.492 133.183 34.46C133.183 33.404 132.967 32.468 132.535 31.652C132.127 30.812 131.551 30.164 130.807 29.708C130.063 29.228 129.223 28.988 128.287 28.988C127.327 28.988 126.475 29.228 125.731 29.708C124.987 30.188 124.399 30.836 123.967 31.652C123.535 32.468 123.331 33.404 123.355 34.46C123.331 35.492 123.535 36.428 123.967 37.268C124.399 38.084 124.987 38.732 125.731 39.212C126.475 39.668 127.327 39.896 128.287 39.896ZM151.033 44.36C149.089 44.36 147.349 43.94 145.813 43.1C144.301 42.236 143.101 41.06 142.213 39.572C141.349 38.084 140.917 36.38 140.917 34.46C140.917 32.54 141.349 30.848 142.213 29.384C143.101 27.896 144.301 26.72 145.813 25.856C147.349 24.992 149.089 24.56 151.033 24.56C152.953 24.56 154.669 24.992 156.181 25.856C157.717 26.72 158.917 27.896 159.781 29.384C160.645 30.848 161.077 32.54 161.077 34.46C161.077 36.38 160.645 38.084 159.781 39.572C158.917 41.06 157.717 42.236 156.181 43.1C154.669 43.94 152.953 44.36 151.033 44.36ZM151.033 39.896C151.969 39.896 152.809 39.668 153.553 39.212C154.297 38.732 154.873 38.084 155.281 37.268C155.713 36.428 155.929 35.492 155.929 34.46C155.929 33.404 155.713 32.468 155.281 31.652C154.873 30.812 154.297 30.164 153.553 29.708C152.809 29.228 151.969 28.988 151.033 28.988C150.073 28.988 149.221 29.228 148.477 29.708C147.733 30.188 147.145 30.836 146.713 31.652C146.281 32.468 146.077 33.404 146.101 34.46C146.077 35.492 146.281 36.428 146.713 37.268C147.145 38.084 147.733 38.732 148.477 39.212C149.221 39.668 150.073 39.896 151.033 39.896ZM172.375 44.36C170.719 44.36 169.231 43.94 167.911 43.1C166.591 42.236 165.547 41.072 164.779 39.608C164.035 38.12 163.663 36.404 163.663 34.46C163.663 32.564 164.035 30.872 164.779 29.384C165.547 27.896 166.579 26.72 167.875 25.856C169.195 24.992 170.695 24.56 172.375 24.56C173.263 24.56 174.115 24.704 174.931 24.992C175.771 25.256 176.515 25.628 177.163 26.108C177.835 26.588 178.375 27.128 178.783 27.728C179.191 28.304 179.419 28.916 179.467 29.564L178.171 29.78V17.36H183.283V44H178.459L178.243 39.608L179.251 39.716C179.203 40.316 178.987 40.892 178.603 41.444C178.219 41.996 177.703 42.5 177.055 42.956C176.431 43.388 175.711 43.736 174.895 44C174.103 44.24 173.263 44.36 172.375 44.36ZM173.527 40.112C174.487 40.112 175.327 39.872 176.047 39.392C176.767 38.912 177.331 38.252 177.739 37.412C178.147 36.572 178.351 35.588 178.351 34.46C178.351 33.356 178.147 32.384 177.739 31.544C177.331 30.68 176.767 30.02 176.047 29.564C175.327 29.084 174.487 28.844 173.527 28.844C172.567 28.844 171.727 29.084 171.007 29.564C170.311 30.02 169.759 30.68 169.351 31.544C168.967 32.384 168.775 33.356 168.775 34.46C168.775 35.588 168.967 36.572 169.351 37.412C169.759 38.252 170.311 38.912 171.007 39.392C171.727 39.872 172.567 40.112 173.527 40.112ZM204.863 44V18.8H210.263V44H204.863ZM188.987 44V18.8H194.387V44H188.987ZM191.147 33.884L191.183 28.988H207.635V33.884H191.147ZM225.147 44.36C223.083 44.36 221.283 43.94 219.747 43.1C218.211 42.26 217.011 41.108 216.147 39.644C215.283 38.18 214.851 36.5 214.851 34.604C214.851 33.14 215.091 31.796 215.571 30.572C216.051 29.348 216.723 28.292 217.587 27.404C218.451 26.492 219.471 25.796 220.647 25.316C221.847 24.812 223.143 24.56 224.535 24.56C225.831 24.56 227.031 24.8 228.135 25.28C229.239 25.736 230.187 26.396 230.979 27.26C231.795 28.1 232.419 29.096 232.851 30.248C233.283 31.4 233.475 32.66 233.427 34.028L233.391 35.612H218.091L217.263 32.48H229.179L228.603 33.128V32.336C228.555 31.688 228.339 31.1 227.955 30.572C227.595 30.044 227.127 29.636 226.551 29.348C225.975 29.06 225.327 28.916 224.607 28.916C223.551 28.916 222.651 29.12 221.907 29.528C221.187 29.936 220.635 30.536 220.251 31.328C219.867 32.12 219.675 33.08 219.675 34.208C219.675 35.36 219.915 36.356 220.395 37.196C220.899 38.036 221.595 38.696 222.483 39.176C223.395 39.632 224.463 39.86 225.687 39.86C226.527 39.86 227.295 39.728 227.991 39.464C228.687 39.2 229.431 38.744 230.223 38.096L232.671 41.516C231.975 42.14 231.207 42.668 230.367 43.1C229.527 43.508 228.663 43.82 227.775 44.036C226.887 44.252 226.011 44.36 225.147 44.36ZM237.204 44V24.956H242.136L242.316 31.076L241.452 29.816C241.74 28.832 242.208 27.944 242.856 27.152C243.504 26.336 244.26 25.7 245.124 25.244C246.012 24.788 246.936 24.56 247.896 24.56C248.304 24.56 248.7 24.596 249.084 24.668C249.468 24.74 249.792 24.824 250.056 24.92L248.688 30.536C248.4 30.392 248.052 30.272 247.644 30.176C247.236 30.056 246.816 29.996 246.384 29.996C245.808 29.996 245.268 30.104 244.764 30.32C244.284 30.512 243.864 30.8 243.504 31.184C243.144 31.544 242.856 31.976 242.64 32.48C242.448 32.984 242.352 33.536 242.352 34.136V44H237.204ZM261.037 44.36C259.093 44.36 257.353 43.94 255.817 43.1C254.305 42.236 253.105 41.06 252.217 39.572C251.353 38.084 250.921 36.38 250.921 34.46C250.921 32.54 251.353 30.848 252.217 29.384C253.105 27.896 254.305 26.72 255.817 25.856C257.353 24.992 259.093 24.56 261.037 24.56C262.957 24.56 264.673 24.992 266.185 25.856C267.721 26.72 268.921 27.896 269.785 29.384C270.649 30.848 271.081 32.54 271.081 34.46C271.081 36.38 270.649 38.084 269.785 39.572C268.921 41.06 267.721 42.236 266.185 43.1C264.673 43.94 262.957 44.36 261.037 44.36ZM261.037 39.896C261.973 39.896 262.813 39.668 263.557 39.212C264.301 38.732 264.877 38.084 265.285 37.268C265.717 36.428 265.933 35.492 265.933 34.46C265.933 33.404 265.717 32.468 265.285 31.652C264.877 30.812 264.301 30.164 263.557 29.708C262.813 29.228 261.973 28.988 261.037 28.988C260.077 28.988 259.225 29.228 258.481 29.708C257.737 30.188 257.149 30.836 256.717 31.652C256.285 32.468 256.081 33.404 256.105 34.46C256.081 35.492 256.285 36.428 256.717 37.268C257.149 38.084 257.737 38.732 258.481 39.212C259.225 39.668 260.077 39.896 261.037 39.896Z" fill="#F3ECE4"/>
<defs>
<filter id="filter0_i_79_1305" x="1.73743" y="0.0460052" width="66.1005" height="60.7135" filterUnits="userSpaceOnUse" color-interpolation-filters="sRGB">
<feFlood flood-opacity="0" result="BackgroundImageFix"/>
<feBlend mode="normal" in="SourceGraphic" in2="BackgroundImageFix" result="shape"/>
<feColorMatrix in="SourceAlpha" type="matrix" values="0 0 0 0 0 0 0 0 0 0 0 0 0 0 0 0 0 0 127 0" result="hardAlpha"/>
<feOffset dy="5"/>
<feGaussianBlur stdDeviation="2"/>
<feComposite in2="hardAlpha" operator="arithmetic" k2="-1" k3="1"/>
<feColorMatrix type="matrix" values="0 0 0 0 0.266667 0 0 0 0 0.00784314 0 0 0 0 0.0156863 0 0 0 0.5 0"/>
<feBlend mode="normal" in2="shape" result="effect1_innerShadow_79_1305"/>
</filter>
</defs>
</svg>
