<svg width="26" height="27" viewBox="0 0 26 27" fill="none" xmlns="http://www.w3.org/2000/svg">
<path d="M9.53753 0.352494C8.95286 0.48774 8.65249 1.01582 8.63642 1.93673C8.62373 2.66377 8.21618 3.77179 7.67156 4.39257C6.82911 5.39603 6.63422 5.44111 5.28607 4.83577C3.263 3.97623 2.52941 4.30281 1.27603 6.60816C-0.0794479 9.20263 -0.056318 10.6576 1.43314 11.5078C2.9711 12.3588 3.02836 14.6386 1.60632 15.4865C0.184272 16.3344 0.344475 18.2765 2.00175 20.6327C2.80697 21.7619 3.51856 22.6955 3.66409 22.698C3.80963 22.7006 4.6879 22.425 5.61637 22.0533C7.66906 21.2164 8.7253 21.8652 9.16895 24.2486C9.52404 26.1457 10.5845 26.5521 14.33 26.0356C16.2755 25.7787 16.4227 25.6843 16.7451 23.896C17.2265 21.3348 18.0129 20.7667 20.1347 21.531C22.2088 22.246 22.6003 22.0589 23.8553 19.6566C25.2091 17.159 25.1341 15.8972 23.6991 14.7085C22.1679 13.4697 22.1949 11.9187 23.8672 10.6388L25.1947 9.64379L23.837 6.80803C23.087 5.29194 22.2375 3.91956 21.9481 3.81754C21.6596 3.66706 20.6367 3.89162 19.6597 4.26244C17.5576 5.14694 16.5976 4.54837 16.0586 2.06629C15.6507 0.410718 15.6031 0.361401 12.9852 0.218739C11.5299 0.193336 9.97667 0.214707 9.53753 0.352494ZM14.7632 9.55868C17.5038 11.0125 17.4744 15.4726 14.6848 16.8299C12.6781 17.813 11.564 17.6966 9.89152 16.2129C8.74418 15.2232 8.41645 14.5387 8.44014 13.1816C8.55126 9.5957 11.6387 7.85569 14.7632 9.55868Z" fill="#86040E"/>
</svg>
